<svg xmlns="http://www.w3.org/2000/svg" viewBox="0 0 500 500"><g id="freepik--background-complete--inject-96"><path d="M55.64,141.46V65.54h75.92v75.92Zm3.58-72.34v68.76H128V69.12Z" style="fill:#ebebeb"></path><rect x="84.35" y="85.88" width="23.77" height="53.59" transform="translate(208.92 16.44) rotate(90)" style="fill:#ebebeb"></rect><rect x="79.87" y="89.77" width="27.46" height="27.46" transform="translate(197.1 9.9) rotate(90)" style="fill:#c7c7c7"></rect><rect x="131.56" y="65.54" width="3.41" height="75.91" style="fill:#dbdbdb"></rect><rect x="71.04" y="177.75" width="17.95" height="51.86" transform="translate(160.03 407.37) rotate(180)" style="fill:#c7c7c7"></rect><path d="M55.64,239.09V163.18h75.92v75.91Zm3.58-72.33v68.75H128V166.76Z" style="fill:#ebebeb"></path><rect x="79.87" y="187.4" width="27.46" height="27.46" transform="translate(294.74 107.53) rotate(90)" style="fill:#ebebeb"></rect><rect x="131.56" y="163.18" width="3.41" height="75.91" style="fill:#dbdbdb"></rect><rect x="74.44" y="266.17" width="22.55" height="37.74" transform="translate(-199.32 370.75) rotate(-90)" style="fill:#ebebeb"></rect><path d="M55.64,336.72V260.81h75.92v75.91Zm3.58-72.33v68.75H128V264.39Z" style="fill:#ebebeb"></path><rect x="79.87" y="285.04" width="27.46" height="27.46" transform="translate(392.37 205.16) rotate(90)" style="fill:#c7c7c7"></rect><rect x="131.56" y="260.81" width="3.41" height="75.91" style="fill:#dbdbdb"></rect><rect x="237.38" y="134.82" width="212.51" height="9.32" style="fill:#ebebeb"></rect><rect x="249.3" y="144.15" width="9.32" height="30.82" style="fill:#ebebeb"></rect><rect x="249.3" y="144.15" width="9.32" height="9.53" style="fill:#dbdbdb"></rect><rect x="428.67" y="144.15" width="9.32" height="30.82" style="fill:#ebebeb"></rect><rect x="428.67" y="144.15" width="9.32" height="9.53" style="fill:#dbdbdb"></rect><rect x="254.83" y="97.65" width="59.39" height="14.96" transform="translate(389.66 -179.4) rotate(90)" style="fill:#c7c7c7"></rect><rect x="281.27" y="68.04" width="6.53" height="14.96" transform="translate(360.05 -209.01) rotate(90)" style="fill:#dbdbdb"></rect><rect x="283.32" y="80.88" width="2.42" height="14.96" transform="translate(372.89 -196.17) rotate(90)" style="fill:#dbdbdb"></rect><rect x="282.2" y="115.36" width="6.53" height="16.82" transform="translate(409.23 -161.69) rotate(90)" style="fill:#dbdbdb"></rect><rect x="262.59" y="94.96" width="69.28" height="10.45" transform="translate(397.42 -197.05) rotate(90)" style="fill:#dbdbdb"></rect><rect x="283.87" y="82.24" width="26.65" height="6.27" transform="translate(382.57 -211.81) rotate(90)" style="fill:#ebebeb"></rect><rect x="313.88" y="101.54" width="69.28" height="10.45" transform="translate(175.7 -214.16) rotate(44.67)" style="fill:#c7c7c7"></rect><rect x="338.82" y="107.16" width="26.65" height="6.27" transform="translate(179.23 -215.69) rotate(44.67)" style="fill:#dbdbdb"></rect><rect x="285.02" y="99.65" width="52.63" height="17.75" transform="translate(419.85 -202.8) rotate(90)" style="fill:#a6a6a6"></rect><rect x="308.88" y="117.93" width="4.9" height="17.75" transform="translate(438.14 -184.52) rotate(90)" style="fill:#c7c7c7"></rect><rect x="310.38" y="111.31" width="1.9" height="17.75" transform="translate(431.51 -191.15) rotate(90)" style="fill:#c7c7c7"></rect><rect x="246.19" y="103.98" width="49.46" height="12.26" transform="translate(381.03 -160.81) rotate(90)" style="fill:#a6a6a6"></rect><rect x="268.62" y="121.16" width="4.61" height="12.26" transform="translate(398.21 -143.63) rotate(90)" style="fill:#c7c7c7"></rect><rect x="268.61" y="91.75" width="4.61" height="12.26" transform="translate(368.8 -173.04) rotate(90)" style="fill:#c7c7c7"></rect><rect x="270.03" y="98.1" width="1.79" height="12.26" transform="translate(375.16 -166.68) rotate(90)" style="fill:#c7c7c7"></rect><polygon points="427.56 111.78 426.22 115.31 425.4 117.46 424.07 121 418.84 134.83 390.61 134.83 385.37 121 384.04 117.46 383.22 115.31 381.88 111.78 392.3 96.6 386.9 86.59 422.56 86.59 417.14 96.6 427.56 111.78" style="fill:#dbdbdb"></polygon><polygon points="427.56 111.78 426.22 115.31 383.22 115.31 381.88 111.78 427.56 111.78" style="fill:#a6a6a6"></polygon><polygon points="425.4 117.46 424.07 121 385.37 121 384.04 117.46 425.4 117.46" style="fill:#a6a6a6"></polygon></g><g id="freepik--Character--inject-96"><path d="M303.93,419.87H209c-.79-3.06-1.54-6.06-2.3-9q-1.31-5.1-2.54-10c-.18-.72-.37-1.45-.56-2.16-.62-2.48-1.24-4.9-1.84-7.24-.36-1.43-.72-2.84-1.07-4.24s-.72-2.82-1.07-4.18c-.1-.36-.18-.72-.28-1.07s-.19-.78-.29-1.16-.24-.94-.36-1.41h0c-.13-.5-.25-1-.37-1.46q-.36-1.38-.69-2.7c-.33-1.3-.66-2.57-1-3.81-.13-.54-.28-1.09-.41-1.62-.23-.86-.44-1.71-.65-2.54-.14-.55-.28-1.09-.41-1.62q-.84-3.27-1.56-6.14c-.14-.51-.26-1-.39-1.48-.2-.83-.41-1.63-.6-2.4-.13-.48-.25-.95-.36-1.4-.42-1.64-.81-3.13-1.13-4.45-.1-.34-.18-.68-.27-1-.21-.86-.42-1.63-.59-2.32-.07-.28-.13-.54-.2-.78s-.13-.53-.19-.76-.09-.34-.13-.48-.12-.46-.16-.65-.05-.21-.08-.29l-.21-.85h92.45s3,10.49,7.92,27.41c1,3.45,2.06,7.17,3.2,11.11C296.08,392.45,299.86,405.62,303.93,419.87Z" style="fill:#37474f"></path><path d="M224.5,419.87h-2.37q-5.28-21.83-10.22-43.73-1.2-5.33-2.36-10.66c-.07-.34-.15-.66-.22-1a.14.14,0,0,1,.28-.07c0,.11.06.21.1.32q1.6,5.73,3.19,11.47Q218.9,398,224.5,419.87Z" style="fill:#263238"></path><path d="M278.72,342.65l-4.08,20.42-3.34,16.76-5.7,28.55L265,411.3l-1,4.88-.74,3.69H208.94c-.78-3.07-1.55-6.08-2.29-9q-1.31-5.1-2.54-10c-.18-.72-.37-1.45-.56-2.16-.62-2.48-1.24-4.9-1.84-7.24-.36-1.43-.72-2.84-1.07-4.24s-.72-2.82-1.07-4.18c-.1-.36-.18-.72-.28-1.07s-.19-.78-.29-1.16-.24-.94-.36-1.41h0c-.13-.5-.25-1-.37-1.46q-.36-1.38-.69-2.7c-.33-1.3-.66-2.57-1-3.81-.14-.56-.28-1.09-.41-1.62-.23-.86-.44-1.71-.65-2.54-.14-.55-.28-1.09-.41-1.62q-.84-3.27-1.56-6.14c-.14-.51-.26-1-.39-1.48-.2-.83-.41-1.63-.6-2.4-.13-.48-.25-.95-.36-1.4-.42-1.64-.81-3.13-1.13-4.45-.1-.34-.18-.68-.27-1-.21-.86-.42-1.63-.59-2.32-.07-.28-.13-.54-.2-.78s-.13-.53-.19-.76-.09-.34-.13-.48-.12-.46-.16-.65-.05-.21-.08-.29l-.21-.85Z" style="fill:#263238"></path><path d="M278.74,342.61v0c0,.5-.39,6-1.28,14.43-.25,2.45-.55,5.15-.9,8-.54,4.56-1.22,9.59-2.05,14.91-1.42,9.28-3.27,19.4-5.68,29.3-.85,3.56-1.79,7.09-2.79,10.54l-119.35.05c1.41-18.19,2.7-34.64,3.72-47.6,1.44-18.25,2.35-29.67,2.35-29.67l108.26,0Z" style="fill:#37474f"></path><path d="M278.48,353.57c-.13,4.28-.31,8.54-.59,12.79-.29,4.61-.71,9.21-1.31,13.8a4.43,4.43,0,0,1-.06.51q-.84,6.46-1.94,12.89c-.68,4-1.19,8.31-3,12a11.72,11.72,0,0,1-2.79,3.77,8.29,8.29,0,0,1-3.82,2,4,4,0,0,1-.71.12h-.2a.28.28,0,0,1,.13.26c-.05,1.43,0,2.89-.17,4.31,0,.06,0,.12,0,.18-.15,1.24-.37,2.46-.6,3.69h-2.05s0-.05,0-.07c.36-1.35.66-2.71,1-4.07s.82-2.74,1.15-4.15a.25.25,0,0,1,.09-.13,6.37,6.37,0,0,1-6.16-3.87c-.68-1.83-.37-3.73-.1-5.61.38-2.44.74-4.88,1.11-7.33.7-4.49,1.6-8.93,2.4-13.39l.36-2c1.6-9.09,3.27-18.17,5.28-27.18.07-.37.16-.74.24-1.12s.46-.18.44.06c-.06.61-.12,1.22-.2,1.82q-.51,5.19-1.24,10.33c-.57,4-1,8.09-1.54,12.12-.19,1.37-.38,2.74-.59,4.12-.92,6.63-1.89,13.26-3,19.87-.53,3.07-2.44,8.57,2,9.52a4.51,4.51,0,0,0,3-.37,9.42,9.42,0,0,0,4.11-5.19c1.25-3.52,1.7-7.39,2.35-11.05q1.08-6.06,1.92-12.15h0q1.08-7.59,2.26-15.18c.4-2.57.81-5.15,1.22-7.72.19-1.19.39-2.39.58-3.58C278.09,353.25,278.48,353.32,278.48,353.57Z" style="fill:#263238"></path><path d="M172.87,385.3a60.07,60.07,0,0,0,14.73-2c2.21-.57,4.41-1.28,6.58-2a17.22,17.22,0,0,0,5.94-3c3.35-2.89,4.91-7.44,6.36-11.47A110.1,110.1,0,0,0,210.34,353c0-.23.39-.15.4.07a53.83,53.83,0,0,1-2,15.81c-1.2,4.36-2.81,9.23-6.34,12.29-3.71,3.22-8.74,4.35-13.49,4.93a62,62,0,0,1-16-.22A.27.27,0,0,1,172.87,385.3Z" style="fill:#263238"></path><path d="M164.6,353.09c-.26,6.68-.54,13.38-.84,20.06q-1,23.36-2.25,46.72h-2.24q1.54-23.42,3.24-46.8.74-10,1.52-20C164.06,352.71,164.62,352.73,164.6,353.09Z" style="fill:#263238"></path><path d="M280.4,216.58c14.45,21.29,65.85,99.49,55.74,119-10.25,19.73-31,32-39.81,16.76-7.24-12.58-31-97.12-33.51-118.61C260.43,213.23,266.2,195.67,280.4,216.58Z" style="fill:#774442"></path><path d="M269,287.21l61.72-6.32s-37.66-56.9-53.46-70.5c-17.78-15.32-21.72-2.88-20.25,19.38S269,287.21,269,287.21Z" style="fill:#FFC727"></path><path d="M320.92,270.82c-2.17-.11-21.43,1.56-25.61,2s-21.28,2.14-25.56,3a.16.16,0,0,0,0,.31c4.34,0,21.59-1.67,25.86-2s23.29-2.45,25.35-3C321.15,271.06,321.07,270.83,320.92,270.82Z" style="fill:#263238"></path><path d="M304.58,283.57,269,287.21S258.49,252,257,229.77c-1.08-16.42.78-27.5,9-26Z" style="fill:#263238"></path><path d="M301.72,391,139.5,383.94s29.07-129.26,91.17-179.58c7.67-6.22,24.28-4,34.92,1.87,3.8,2.1,16.89,22.21,20.06,40.82S302.18,390.48,301.72,391Z" style="fill:#FFC727"></path><path d="M250.43,201.17l-9.44-.42A39.93,39.93,0,0,1,250.43,201.17Zm15.15,5.07c-.94-.53-1.92-1-2.95-1.47L232,203.41a14.62,14.62,0,0,0-1.34,1c-.36.3-.73.59-1.09.9l36.87,1.62A4.73,4.73,0,0,0,265.58,206.24Zm3.68,3.83-43.06-1.91c-.68.6-1.35,1.23-2,1.86l46.55,2.06C270.23,211.35,269.73,210.68,269.26,210.07Zm3.56,5.16L221.12,213c-.62.62-1.24,1.23-1.84,1.87L274,217.24C273.62,216.54,273.21,215.88,272.82,215.23Zm3,5.14-59.33-2.62c-.57.62-1.14,1.24-1.7,1.87l62.08,2.74Zm2.62,5.12-66.22-2.92c-.54.62-1.07,1.25-1.59,1.88l68.73,3C279.06,226.81,278.75,226.14,278.44,225.49Zm2.27,5.12-72.48-3.2c-.51.62-1,1.25-1.48,1.88l74.76,3.3C281.26,231.93,281,231.26,280.71,230.61Zm1.94,5.09-78.17-3.45c-.47.62-.93,1.25-1.4,1.89l80.24,3.54C283.11,237,282.88,236.35,282.65,235.7Zm1.59,5.08L201,237.11c-.45.63-.88,1.25-1.31,1.88l85.11,3.76C284.59,242.09,284.43,241.43,284.24,240.78Zm1.42,6.27-.22-1.22L197.6,242c-.41.63-.82,1.26-1.25,1.9l89.43,3.94C285.73,247.53,285.7,247.28,285.66,247.05Zm.58,3.83-91.8-4c-.4.63-.81,1.26-1.2,1.89l93.28,4.12C286.42,252.15,286.33,251.49,286.24,250.88Zm.68,5L191.4,251.7c-.38.62-.76,1.26-1.14,1.9l96.92,4.28C287.09,257.2,287,256.55,286.92,255.91Zm.65,5-99.07-4.38c-.37.63-.73,1.27-1.1,1.91l100.42,4.43C287.73,262.25,287.65,261.6,287.57,261Zm.62,5-102.47-4.52-1.06,1.91L288.44,268C288.35,267.28,288.27,266.64,288.19,266Zm.61,5-105.75-4.67c-.35.64-.69,1.27-1,1.91L289,273Zm.61,5-108.93-4.81c-.34.63-.67,1.27-1,1.91L289.64,278C289.56,277.36,289.49,276.71,289.41,276.07Zm.59,5-112-4.94c-.32.64-.63,1.28-.94,1.91l113.18,5C290.15,282.4,290.07,281.74,290,281.09Zm.59,5-115-5.07c-.3.64-.61,1.27-.91,1.91l116.14,5.12C290.74,287.43,290.65,286.78,290.59,286.13Zm.58,5L173.28,286c-.29.64-.58,1.28-.88,1.91l119,5.26C291.32,292.47,291.24,291.81,291.17,291.16Zm.57,5-120.68-5.33c-.3.63-.58,1.28-.87,1.91L292,298.16C291.89,297.51,291.81,296.85,291.74,296.2Zm.57,5-123.43-5.44-.82,1.9,124.47,5.5C292.46,302.53,292.38,301.89,292.31,301.23Zm.56,5L166.78,300.7c-.26.64-.53,1.28-.8,1.91l127.11,5.61C293,307.56,293,306.91,292.87,306.27Zm.57,5-128.7-5.67c-.26.63-.52,1.28-.77,1.91l129.69,5.72C293.58,312.6,293.51,311.94,293.44,311.29Zm.56,5-131.22-5.79c-.26.64-.52,1.27-.76,1.91l132.19,5.84Zm.55,5-133.7-5.89c-.24.65-.49,1.28-.73,1.92l134.65,5.93C294.7,322.67,294.62,322,294.55,321.36Zm.56,5-136.12-6-.71,1.92,137,6.06C295.25,327.71,295.18,327.06,295.11,326.4Zm.54,5-138.47-6.11c-.23.63-.46,1.28-.7,1.91l139.38,6.16Zm.54,5-140.76-6.21c-.24.64-.46,1.28-.68,1.92l141.66,6.25C296.34,337.77,296.27,337.12,296.19,336.46Zm.55,5-143-6.32c-.23.65-.45,1.29-.66,1.93L297,343.44C296.89,342.8,296.81,342.15,296.74,341.49Zm.54,5-145.22-6.4c-.21.64-.42,1.27-.63,1.92l146.06,6.45Zm.54,5-147.37-6.51c-.2.64-.41,1.29-.62,1.93L298,353.51Q297.92,352.55,297.82,351.56Zm.53,5L148.88,350c-.19.65-.4,1.29-.59,1.92l150.27,6.62Zm.53,5-151.5-6.68c-.21.65-.4,1.29-.59,1.92l152.29,6.71C299,362.92,299,362.28,298.88,361.62Zm.53,5L145.9,359.88c-.2.65-.38,1.29-.56,1.93l154.27,6.8C299.54,368,299.47,367.32,299.41,366.64Zm.51,5.05-155.44-6.87c-.18.66-.37,1.3-.55,1.93l156.2,6.89Q300,372.7,299.92,371.69Zm.51,5-157.32-6.94c-.19.67-.37,1.3-.53,1.92l158.06,7C300.57,378.05,300.5,377.39,300.43,376.72Zm.5,5-159.14-7c-.18.68-.36,1.31-.51,1.92l159.85,7.06C301.06,383.09,301,382.43,300.93,381.75Zm.48,5-160.89-7.1c-.19.74-.35,1.38-.47,1.93l161.54,7.11C301.54,388.16,301.48,387.51,301.41,386.78Z" style="fill:#030402;opacity:0.1"></path><path d="M207.64,223.36c-45.3,49.44-78,129.07-63,141.52,17,14.12,81,27.65,106.59,30.85,7.92,1,11.63-64.81,3.09-64.93-10.35-.16-48.7-9.47-49.73-9.52-2.22-.12,21.37-66.14,28.45-92.1C242.85,193,224.65,204.79,207.64,223.36Z" style="fill:#774442"></path><path d="M337.83,344.34c1.6,6.66-4.48,10.3-4.48,10.3s4,3.72,4.27,9c.31,6-9,9.12-9,9.12a18,18,0,0,1,3,10.18c-.28,5.77-9.21,10.25-9.21,10.25a15.79,15.79,0,0,1-3,10.61c-6.31,7.93-21.7,6.18-31.49,5.17s-39.19-14.38-44.54-16.16L252,331.19s45.2-7.95,56.54-5.12C318.05,328.45,336,336.86,337.83,344.34Z" style="fill:#774442"></path><path d="M333.18,354.33c-9.56-5-20.06-6.84-30.43-9.31-.23,0-.32.31-.09.36,10.35,2.33,20.1,6.69,30.34,9.43A.26.26,0,0,0,333.18,354.33Z" style="fill:#263238"></path><path d="M328.52,371.88a28,28,0,0,0-7.11-1.83c-2.56-.48-5.12-.9-7.69-1.29-5.15-.78-10.32-1.45-15.51-2-.23,0-.32.32-.08.36,5.13.79,10.25,1.65,15.35,2.65,2.54.51,5.09,1,7.63,1.57a33.79,33.79,0,0,0,7.25,1.2A.38.38,0,0,0,328.52,371.88Z" style="fill:#263238"></path><path d="M322.22,393.11c-1.87-1-4.42-1-6.49-1.31q-3.53-.45-7.05-1c-4.7-.66-9.4-1.33-14.08-2.16-.23,0-.31.32-.08.36,4.75.87,9.48,1.8,14.23,2.62q3.5.61,7,1.18c2,.32,4.43,1,6.43.51A.13.13,0,0,0,322.22,393.11Z" style="fill:#263238"></path><path d="M220.58,287.31l-61-11.26s42.11-53.69,58.94-66c19-13.84,21.89-1.12,18.64,20.94S220.58,287.31,220.58,287.31Z" style="fill:#FFC727"></path><path d="M170.15,266.8c2.17.07,21.24,3.28,25.37,4.06s21,3.85,25.24,5a.15.15,0,0,1,0,.3c-4.32-.36-21.38-3.39-25.6-4.11s-23-4.31-25-5C169.91,267,170,266.8,170.15,266.8Z" style="fill:#263238"></path><path d="M215.76,286.39c1.86.2,4.74.63,4.74.63,2.16-8.39,5.21-16.63,7.74-24.92,2.56-8.44,5.38-16.78,8-25.19a.1.1,0,0,1,.2.06c-1.21,4.86-2.43,9.69-3.7,14.51l.8-1.71c.93-2.05,1.92-4.06,2.78-6.14a.15.15,0,1,1,.28.09,51.82,51.82,0,0,1-2.39,6.36c-.68,1.44-1.45,2.83-2.24,4.21-.75,2.76-1.47,5.53-2.29,8.28-2.5,8.43-4.63,18-7.78,26.2,0,0-4.25-1.17-6.32-2C215.37,286.69,215.48,286.36,215.76,286.39Z" style="fill:#263238"></path><path d="M267.62,231.55c-8.53,2-23.19-11-29-21.55-.4-.72.7-8.36,1.6-17.7.52-5.68,1-12,1-17.81,0-1.19,36.42,8.79,36.42,8.79s-3.56,12.18-3.49,22.29a12.86,12.86,0,0,0,.26,2.39c0,.11,0,.24.05.39C275.18,212.87,275.86,229.59,267.62,231.55Z" style="fill:#774442"></path><path d="M270.69,208.55a22.05,22.05,0,0,0,3.74-.2c0-.16,0-.28-.05-.4a11.9,11.9,0,0,1-.25-2.38c-.08-10.11,3.48-22.28,3.48-22.28s-29.57-8.11-35.42-8.85C243.32,181.15,249.22,208.11,270.69,208.55Z" style="fill:#263238"></path><path d="M251.35,123.94c-8,10.85-14.08,48.27-8.21,59.18,8.51,15.81,28.66,24.18,43.66,12.53,14.55-11.29,21.57-60.2,14.43-70.75C290.72,109.36,263.21,107.92,251.35,123.94Z" style="fill:#774442"></path><path d="M274.14,151.71a29.33,29.33,0,0,0,2.88,1.78c1.11.67,1.92,1.32,3.28,1.26a1.73,1.73,0,0,0,1.46-1.54c.08-1.65-1.07-2.81-2.38-3.67a6.3,6.3,0,0,0-4.43-1.13A1.86,1.86,0,0,0,274.14,151.71Z" style="fill:#263238"></path><path d="M301.28,150.49a31.34,31.34,0,0,1-3.35.45c-1.29.15-2.3.41-3.51-.2a1.74,1.74,0,0,1-.7-2c.6-1.54,2.13-2.12,3.68-2.37a6.28,6.28,0,0,1,4.5.79A1.85,1.85,0,0,1,301.28,150.49Z" style="fill:#263238"></path><path d="M267.8,180.83c.48.71.91,1.64,1.8,1.9a6.88,6.88,0,0,0,2.82-.07.09.09,0,0,1,.08.15,3.47,3.47,0,0,1-3.46.7,2.72,2.72,0,0,1-1.51-2.62C267.53,180.74,267.73,180.72,267.8,180.83Z" style="fill:#263238"></path><path d="M292.44,161.18c0-.08.15.16.12.25-.7,2.26-1.11,5,.74,6.29.06,0,0,.15-.05.12C290.83,166.8,291.42,163.21,292.44,161.18Z" style="fill:#263238"></path><path d="M291.55,164.17a3.64,3.64,0,0,0,.34,1.93,2.66,2.66,0,0,0,1.68,1.32,2.4,2.4,0,0,0,2.09-.49,4.25,4.25,0,0,0,1.13-1.58,6.25,6.25,0,0,0,.36-1.11,5.13,5.13,0,0,0,.07-2.4,8.4,8.4,0,0,1-.51,1.68,12.43,12.43,0,0,1-.72,1.41c-.57.92-1.37,1.6-2.15,1.35s-1.3-1-1.37-2.12a16.83,16.83,0,0,1,.17-3.36A7.62,7.62,0,0,0,291.55,164.17Z" style="fill:#263238"></path><path d="M278.25,157.82c0-.09-.2.07-.22.17-.35,2.34-1.14,5-3.39,5.35-.07,0-.08.13,0,.13C277.27,163.58,278.29,160.09,278.25,157.82Z" style="fill:#263238"></path><path d="M277.76,160.9a3.71,3.71,0,0,1-1.15,1.59,2.68,2.68,0,0,1-2.08.47,2.38,2.38,0,0,1-1.67-1.36,4.19,4.19,0,0,1-.34-1.9,8.75,8.75,0,0,1,.15-1.16,5.3,5.3,0,0,1,1-2.2,8.07,8.07,0,0,0-.27,1.74,11.83,11.83,0,0,0,0,1.58c.12,1.08.54,2,1.35,2.15s1.61-.37,2.15-1.31a17.06,17.06,0,0,0,1.3-3.11A7.62,7.62,0,0,1,277.76,160.9Z" style="fill:#263238"></path><path d="M273.26,178c3.43-.6,7.42.65,9.93,1.51.3,0,.68-.5.78-.76v0c0-.09.93-5.32.93-5.32.62.49,3.84,2.82,4,1.81,1.2-8.33,2.55-17.59,2-26.13a.23.23,0,0,0-.46,0c-1.48,8-1.55,16.13-2.91,24.15a15.26,15.26,0,0,0-3.72-2c-.29,0-.7,5.68-1,6.52,0,0-4.73-2.56-9.39-.79C272.23,177.31,271.62,178.24,273.26,178Z" style="fill:#263238"></path><path d="M278.24,181.38c1.3-.14,3.7-4.09,1.59-4.77s-7.21-.47-9.3,1.94c-1.84,2.11,4.64,1.54,5.62,2.1C277,181.12,277.3,181.47,278.24,181.38Z" style="fill:#263238"></path><path d="M276.16,180.66c.19.11.32.2.47.27.21-1.38-.82-3.27-3.77-3.92a5.75,5.75,0,0,0-2.34,1.53C268.7,180.66,275.18,180.1,276.16,180.66Z" style="fill:#ff9abb"></path><path d="M297.57,178a0,0,0,0,0-.08,0c-3.11,8.71-8.19,16.6-16.69,20.82a19.92,19.92,0,0,1-6.86,2.12c-.12,0-.09.2,0,.19a26.2,26.2,0,0,0,6.25-1.28,23.47,23.47,0,0,0,5.68-3A28.61,28.61,0,0,0,295,185.88,41.43,41.43,0,0,0,297.57,178Z" style="fill:#263238"></path><path d="M241.82,153.45s-2.68-25,3.7-35.77c2.88-4.85,11.43-5,11.43-5s.83-7.16,9.06-9.87c8.67-2.85,22.66,5.25,22.66,5.25s15.85-9.23,26.69,2.45-5,22.76-5,22.76,1.64,9.26-12.89,9.1c-14.16-.17-35.58-16.56-35.58-16.56a91.7,91.7,0,0,1-12,24.54C247,154.54,241.82,153.45,241.82,153.45Z" style="fill:#263238"></path><path d="M290.89,109.28a26,26,0,0,0-8.6-6.12,28.11,28.11,0,0,0-9.1-2.65c-5.61-.52-11.55,1-14.84,5.93a10.86,10.86,0,0,0-1.6,8.28c0,.11.21.06.18-.06-1.3-5.28,3.12-10.48,7.81-12.19,5.32-1.93,11.49-.72,16.56,1.4a45.83,45.83,0,0,1,9.37,5.66A.17.17,0,0,0,290.89,109.28Z" style="fill:#263238"></path><path d="M321.9,121.4c.65-4.26-1.44-8.17-4.5-11a21.63,21.63,0,0,0-12.87-5.49,27.19,27.19,0,0,0-13.95,2.83c-.1,0,0,.22.08.17,7.81-3.59,17.27-3.29,24.28,2,3.13,2.37,5.77,5.79,5.82,9.86a12.9,12.9,0,0,1-4.95,9.79c-3.54,2.86-8.19,4.1-12.63,4.6a.08.08,0,0,0,0,.16,25,25,0,0,0,12-3.3A14.09,14.09,0,0,0,321.9,121.4Z" style="fill:#263238"></path><path d="M300.09,144.32a44.52,44.52,0,0,1-18.18-5,90.74,90.74,0,0,1-16.57-10.71c-3-2.4-5.91-4.91-8.77-7.47-.09-.08-.2,0-.12.14a99.92,99.92,0,0,0,15.49,14.08,50,50,0,0,0,17.56,8,42.4,42.4,0,0,0,10.6,1.05C300.19,144.46,300.18,144.32,300.09,144.32Z" style="fill:#263238"></path><path d="M248.49,156s-5.44-13.67-11.45-12-3.85,20.14,1.85,23.94a6.54,6.54,0,0,0,9.33-1.41Z" style="fill:#774442"></path><path d="M237.79,149.3a.09.09,0,0,0-.07.16c4,2.81,5.31,7.41,5.94,12-.93-1.93-2.49-3.24-5-2.2-.13.06-.07.26.06.27a4,4,0,0,1,4,2.37,19.66,19.66,0,0,1,1.24,4c.11.44.87.4.83-.09,0,0,0-.07,0-.11C246.16,160.12,243.66,151.27,237.79,149.3Z" style="fill:#263238"></path><path d="M297.77,349.68c6.62,16.55,28.88,7.05,34.57-4,13.36-26,22-82.46,21.56-108.87-.16-8.5-54.64-5.76-57.49,2.87C293.43,248.69,284.33,316.12,297.77,349.68Z" style="fill:#774442"></path><path d="M353,240.74s3.81-16.81,6.48-31.67c1.48-8.28,1.29-25.49-.4-32.08-2.54-9.86-19.42-49.46-29.11-45.57-8.77,3.52,10.06,35.7,10.06,35.7s-16.13-34.16-25.91-28,16.32,39.71,16.32,39.71S313.11,144.13,304,152.1c-6.86,6,15.06,37.72,15.06,37.72S304,160.08,296.65,166c-8.09,6.51,10.31,37,10.31,37-16.09,18.1-20.1,30-9.86,42.7C298.75,247.76,353,240.74,353,240.74Z" style="fill:#774442"></path><path d="M346.38,178.57c-1.75-4.08-3.49-8.22-5.6-12.13S336.43,158.69,334,155c-6-9.07-11.23-13.8-10.94-13.48,6.84,7.75,14.59,21.63,16.7,25.54s4.4,7.7,6.5,11.61C346.29,178.76,346.42,178.67,346.38,178.57Z" style="fill:#263238"></path><path d="M332.4,186.43c-2.46-5.11-4.72-10.28-7.4-15.29s-5.64-9.47-8.65-14.26c-.23-.36-.36-.12-.14.26,2.82,4.9,5,9.65,7.8,14.58s5.7,9.77,8.27,14.78C332.32,186.58,332.43,186.51,332.4,186.43Z" style="fill:#263238"></path><path d="M321.61,195.33a131.05,131.05,0,0,0-13-23c-.24-.36-.37,0-.14.35,4.5,7.4,8,13.68,12.88,22.78C321.4,195.59,321.68,195.5,321.61,195.33Z" style="fill:#263238"></path><path d="M312.28,148.13a15.73,15.73,0,0,1-.47-5,6.56,6.56,0,0,1,2-4c.07-.07.18.06.1.12-1.4,1-1.62,3.09-1.52,4.66a25,25,0,0,0,.78,4.53,32.66,32.66,0,0,0,1.5,4.51,42.78,42.78,0,0,0,1.91,4.33h0a.06.06,0,0,1,0,.07h0a.08.08,0,0,1-.11,0,16.6,16.6,0,0,0-5.32-4.89,7.06,7.06,0,0,0-3.24-1.2,4.34,4.34,0,0,0-4.48,3.69,8.74,8.74,0,0,0,.31,3.17,63.74,63.74,0,0,0,2,7c.44,1.27.93,2.53,1.45,3.77s1.15,2.44,1.59,3.71c0,.08-.25.12-.3.07-.69-.69-5.43-6.25-8.54-6.8a3.91,3.91,0,0,0-4.2,1.72,8,8,0,0,0-.94,4.93,58.41,58.41,0,0,0,1.79,8.76.08.08,0,0,1-.15,0c-.64-2.09-2-6.59-2.37-8.75a7.81,7.81,0,0,1,.78-5.33A4.82,4.82,0,0,1,299,164.9a8.06,8.06,0,0,1,4.6,2.23,54.34,54.34,0,0,1,4.39,4.62c-.46-.79-2.32-4.89-2.81-6.15a58.06,58.06,0,0,1-2.38-7.66c-.54-2.29-.5-4.71,1.43-6.36a5.47,5.47,0,0,1,6.24-.36,14.35,14.35,0,0,1,4.12,3.33,16.12,16.12,0,0,1-.77-1.49A26.65,26.65,0,0,1,312.28,148.13Z" style="fill:#263238"></path><path d="M292,325.88c.69,3,1.35,6,2.14,9s1.57,5.92,2.48,8.83A41.3,41.3,0,0,0,300,352a8.08,8.08,0,0,0,.59.89l.64.78a15.63,15.63,0,0,0,1.64,1.39,14.55,14.55,0,0,0,3.81,2,15.06,15.06,0,0,0,4.22.72,17.61,17.61,0,0,0,4.32-.52,28.17,28.17,0,0,0,8.15-3.55c1.3-.76,2.51-1.69,3.74-2.56a18.1,18.1,0,0,0,3.19-3.12,29.59,29.59,0,0,0,4.61-7.86,27,27,0,0,1-3.82,8.45,19.27,19.27,0,0,1-3.15,3.55c-1.21,1-2.41,2-3.72,2.85a28,28,0,0,1-8.54,4.08,18,18,0,0,1-4.8.63,16.61,16.61,0,0,1-4.84-.78,16.08,16.08,0,0,1-4.33-2.3,15.57,15.57,0,0,1-1.85-1.61l-.82-1a8.27,8.27,0,0,1-.65-1.05,37.79,37.79,0,0,1-3.32-8.82A113.49,113.49,0,0,1,292,325.88Z" style="fill:#263238"></path></g><g id="freepik--Line--inject-96"><path d="M252.49,85a9.29,9.29,0,0,0-.42-6.32c-1.29-2.79-4.1-4-6.95-4.55a44.65,44.65,0,0,0-9.92-.86,46.14,46.14,0,0,0-19.09,4.64,31.37,31.37,0,0,0-7.81,5.22l-.25.25c-.64.43-1.28.87-1.89,1.33A24.7,24.7,0,0,0,200.1,91a17.25,17.25,0,0,0-1.28,2.32,14.4,14.4,0,0,0-1.42,3.65,7.91,7.91,0,0,0,2.48,7.88c2.37,2.12,5.53,2.86,8.64,3a51.16,51.16,0,0,0,8-.37c1.54-.09,3.07-.25,4.55-.46q1.46-.19,2.91-.45c.45,3.91,2,7.76,3.45,11.34,0,.09.18,0,.15,0-1.44-3.63-2.87-7.48-3.14-11.37a55.49,55.49,0,0,0,14.31-4.23,28.93,28.93,0,0,0,7.48-5c1.87-1.77,3.76-4.28,3.63-7a12.42,12.42,0,0,0,2.1-3.33A8.57,8.57,0,0,0,252.49,85Zm-35.31,21.2c-4.28.31-9.29,0-13.22-2.09a41.26,41.26,0,0,0,8.33,1.22,44.85,44.85,0,0,0,9.41-.59c.35,0,.7,0,1-.06s.75-.09,1.13-.15c0,.2,0,.4,0,.61-1.67.36-3.34.67-5,.91Zm16-28.8a24.18,24.18,0,0,1,8.26,1.92c2.31,1.07,4.5,2.92,4.49,5.66,0,.12,0,.24,0,.36a11.48,11.48,0,0,0-2.72-.74c-.25,0-.5,0-.75-.08a14.67,14.67,0,0,0-3.38-1.39,12.74,12.74,0,0,0-6-4.1,20.86,20.86,0,0,0-6.63-1.11c.87-.2,1.73-.39,2.61-.56A34,34,0,0,1,233.21,77.38Zm11.9,14.21a4.43,4.43,0,0,0-.77-.79,11.89,11.89,0,0,0,.83-1A5.77,5.77,0,0,1,245.11,91.59Zm-18.05,12.32c1.43-.28,2.84-.59,4.25-1a58.3,58.3,0,0,1-6.91,2c0-.19,0-.38,0-.57C225.3,104.26,226.18,104.08,227.06,103.91Zm-1.77-4,.06-.14a.43.43,0,0,0,.49.14,92.73,92.73,0,0,0,9.5-3.3,28.86,28.86,0,0,0,8.06-4.88,3.13,3.13,0,0,1,1,1.44c-.68.43-1.37.84-2.07,1.22a60.83,60.83,0,0,1-17.3,6.23C225.14,100.38,225.2,100.14,225.29,99.91Zm.43-1a11.32,11.32,0,0,1,4.81-5,28.69,28.69,0,0,1,8.23-2.74,6.71,6.71,0,0,1,3.69.09c-.27.23-.55.45-.82.66C237,95.38,231.25,97.18,225.72,98.88Zm1.05,2.56a63.6,63.6,0,0,0,9.92-3.07,51.51,51.51,0,0,1-8.95,3.72c-.6.18-1.21.35-1.82.51l-1.3.27h-.06c.05-.34.11-.69.18-1C225.42,101.72,226.1,101.59,226.77,101.44ZM223.91,103a14.64,14.64,0,0,1-2.88.27,5.6,5.6,0,0,1-2.54-.55c1.85-.17,3.7-.41,5.54-.74Q224,102.49,223.91,103ZM243,95.88c-.1.12-.19.24-.29.35s-.34.36-.5.53l-1.1.7a25.83,25.83,0,0,1-3.76,2l-.45.18A54.86,54.86,0,0,0,243,95.88Zm.46-5.66-.1-.06a7.67,7.67,0,0,0-4.94-.21,29,29,0,0,0-8.57,3.14,11.78,11.78,0,0,0-5.29,6.63c-.11.36-.21.71-.29,1.06a61,61,0,0,1-6.89.94,3.53,3.53,0,0,1-.36-2.58,9.27,9.27,0,0,1,1.85-3.66,41.73,41.73,0,0,0,15.9-5.56,37.23,37.23,0,0,0,3.84-2.63,3.43,3.43,0,0,0,1.21-1.61,16.22,16.22,0,0,1,2.7,0,6.33,6.33,0,0,1,2.31,2.78A10.85,10.85,0,0,1,243.45,90.22Zm-37.29-2.81c.05-.08.1-.15.14-.23a45.61,45.61,0,0,1,13.14-7.24l.34-.11c4.58-1,9.7-1.18,14,.71a12.15,12.15,0,0,1,3.1,1.94l.21.18a28.73,28.73,0,0,0-7.74-.44,30.42,30.42,0,0,0-15.82,6,21.17,21.17,0,0,0-5.84,6.16,3.7,3.7,0,0,1-1.6-.75C204.33,92.05,205.19,89.13,206.16,87.41Zm32.5-2.84a34.93,34.93,0,0,0-5.46,1.18c-5.58,1.61-11.32,4-15.11,8.6l-.09.12c-1.13.13-2.26.23-3.39.26a36.85,36.85,0,0,1-4.46-.11c-.42,0-.88-.06-1.34-.11a13.48,13.48,0,0,1,1.5-2,27.92,27.92,0,0,1,6.12-5.08,29.46,29.46,0,0,1,15-4.33,25.76,25.76,0,0,1,6.88.82A2.74,2.74,0,0,1,238.66,84.57Zm-.17,1.24a7.29,7.29,0,0,1-1.55,1.28c-.62.46-1.27.9-1.92,1.32a40.9,40.9,0,0,1-3.7,2.1A40.13,40.13,0,0,1,220,94.17c.55-.55,1.12-1.07,1.69-1.54a27.29,27.29,0,0,1,7.1-4.09A44.42,44.42,0,0,1,237,86.05C237.51,86,238,85.88,238.49,85.81Zm-30.23,9.73a34.65,34.65,0,0,0,8.81.16h0c-1.21,1.82-2.1,4.07-1.26,6.1l-.92,0c-2.09.05-4.78-.13-6.28-1.81A4,4,0,0,1,208.26,95.54Zm36.61-9c-.13-.17-.28-.32-.42-.48a10,10,0,0,1,1.25.47,6.21,6.21,0,0,1-.3.82A5.12,5.12,0,0,0,244.87,86.57Zm-43.94,15.25a6.94,6.94,0,0,1-1.87-3.28,6.23,6.23,0,0,1,.74-4.24,20.74,20.74,0,0,1,4.55-5.44,8,8,0,0,0-.28,1.2,5.35,5.35,0,0,0,.46,3.32,4.17,4.17,0,0,0,2.69,1.94,5.78,5.78,0,0,0-.42,3.36,4.74,4.74,0,0,0,2.1,3c2.16,1.41,5,1.37,7.47,1.23h.1a4.52,4.52,0,0,0,1.41,1.14,43.8,43.8,0,0,1-6.58.07,39.34,39.34,0,0,1-8.13-1.42,13,13,0,0,1-2.08-.69ZM246,92.06a6.94,6.94,0,0,0-.11-3.42,10,10,0,0,0,.73-1.6,4.13,4.13,0,0,1,1.92,2.59,23.79,23.79,0,0,1-2.07,2.07Zm3.46-3.56a5.77,5.77,0,0,0-2.56-2.7,6.24,6.24,0,0,0,0-1.78c-.43-2.76-2.7-4.63-5.12-5.71A24.34,24.34,0,0,0,235,76.45l.48-.06c3.08-.32,6.29-.6,9.32.2a9,9,0,0,1,6,4.58,6.18,6.18,0,0,1,.18,4.68A12.73,12.73,0,0,1,249.49,88.5Zm-29.6-11.08a45.1,45.1,0,0,1,17.9-3.06,33.2,33.2,0,0,1,9,1.32,7.17,7.17,0,0,1,3.51,2.24,5.91,5.91,0,0,1,.86,1.53,6.3,6.3,0,0,0-.37-.53c-4.18-5.09-11.63-4.24-17.45-3.48-1.71.23-3.43.52-5.14.87a38.52,38.52,0,0,0-4.75.66,43.17,43.17,0,0,0-7.93,2.43A43.47,43.47,0,0,1,219.89,77.42ZM199.5,102.68a6.71,6.71,0,0,1-.4-.68,1.71,1.71,0,0,0,.18.2,5,5,0,0,0,1.16.77,12.94,12.94,0,0,0,2.1,1.62,18,18,0,0,0,4.64,2c-.17,0-.34,0-.51-.06A10.19,10.19,0,0,1,199.5,102.68Zm42.09-3.41a33.62,33.62,0,0,1-4.57,2.39c.67-.35,1.32-.7,2-1.09s1-.67,1.55-1a19.78,19.78,0,0,0,3.89-2.71,4.09,4.09,0,0,0,1.5-3.17l0,0a1.07,1.07,0,0,0,.16-.14,23.44,23.44,0,0,0,2.37-1.87,8,8,0,0,1-.88,2A18.61,18.61,0,0,1,241.59,99.27Z" style="fill:#263238"></path></g><g id="freepik--Plant--inject-96"><path d="M433.24,315.28c-14.33,19.41-29.27,41.92-32.9,66.25a.32.32,0,0,0,.63.13,144,144,0,0,1,6.33-19.49c9.42-2.59,18.67-4.72,23.61-14.06,5-9.61,4.4-22.14,3.45-32.61C434.29,314.94,433.53,314.91,433.24,315.28Z" style="fill:#FFC727"></path><path d="M407.44,362c6.44-14.44,14.7-28.94,25.2-40.82.07-.08.18,0,.12.12-6.88,8.46-12.1,17.67-17.2,27,4.74-4.81,9.94-9.13,14.43-14.23.09-.1.23,0,.15.14-4.47,5.35-9.34,11.17-15.15,15.13q-2.34,4.32-4.73,8.65c.39-.22.8-.42,1.2-.61.07,0,.13.07.06.1-.44.23-.88.46-1.34.66-.75,1.36-1.5,2.73-2.28,4.09C407.73,362.56,407.31,362.3,407.44,362Z" style="fill:#263238"></path><path d="M412.23,357a84.2,84.2,0,0,0,11-7.34c.09-.07.23.06.13.14a58,58,0,0,1-11,7.47A.16.16,0,0,1,412.23,357Z" style="fill:#263238"></path><path d="M398.68,377.92c0,.29.53.29.52,0,.08-8,0-16.06.13-24.11,2.05-4.14,6.46-6.43,9.52-9.75a43,43,0,0,0,5.72-8A57.31,57.31,0,0,0,421.2,314c.84-8.57-2.41-36.86-6-35.87-1.88.51-7.94,14.51-9.55,19.14a134.44,134.44,0,0,0-5.7,23.48C397,339.58,397.25,358.94,398.68,377.92Z" style="fill:#FFC727"></path><path d="M398.62,343.35l0,0c.44-10.14,2.72-20.38,4.86-30.21,2.3-10.59,5-20.57,10.45-30,.1-.17.36,0,.27.16a111.43,111.43,0,0,0-8.4,23c.37-.57.81-1.11,1.19-1.65.15-.21.5,0,.35.21a14.46,14.46,0,0,1-1.7,2.4.11.11,0,0,1-.07,0c-1.88,7.57-3.22,15.32-4.38,23.05.09-.1.17-.21.26-.3s.16,0,.12.09c-.14.25-.3.51-.46.76-.58,3.93-1.12,7.84-1.66,11.72,7-6,12.94-13,16.31-21.67,0,0,.08,0,.06,0-3.29,9-8.49,17-16.48,22.43-.15,1.05-.29,2.09-.44,3.13,0,.22-.38.16-.38-.05,0-.92.05-1.85.09-2.77A.22.22,0,0,1,398.62,343.35Z" style="fill:#263238"></path><path d="M401.91,328.66c5.34-8,10.32-15.7,14.22-24.5.05-.09.22,0,.18.08-3.29,8.74-7.9,17.6-14.13,24.63C402.05,329,401.8,328.82,401.91,328.66Z" style="fill:#263238"></path><path d="M409,302.2c2.21-3.91,4.54-7.72,6.62-11.71.06-.11.21,0,.17.1a61.23,61.23,0,0,1-6.45,11.81C409.2,302.6,408.87,302.42,409,302.2Z" style="fill:#263238"></path><path d="M408.14,303.9s0,.07,0,.07A0,0,0,1,1,408.14,303.9Z" style="fill:#263238"></path><path d="M393.26,354.74a81.29,81.29,0,0,1-1.88,15.79c.09.57.17,1.14.25,1.73a75.7,75.7,0,0,0,2.83-17.6.54.54,0,0,0,0-.54v0a117.07,117.07,0,0,0-1.77-23.84c-2.48-14.73-7.9-28.86-18.17-39.89a.74.74,0,0,0-1.14.23c-4.14,10.54-2.69,23.11.84,33.62a61.58,61.58,0,0,0,8.14,16C385.9,345.14,390.39,349.33,393.26,354.74Z" style="fill:#FFC727"></path><path d="M375.75,295.3c9.74,15.79,16.51,34.52,17.34,53.18,0,.33-.55.42-.59.08-.23-1.68-.49-3.34-.76-5h0c-4-3.86-8.16-7.92-11.05-12.74-.05-.09.07-.19.14-.11,3.5,4,6.77,8.1,10.73,11.67-.7-4.12-1.52-8.18-2.5-12.18l-.77-.91c-.17-.19.11-.48.29-.29a2.85,2.85,0,0,0,.23.26,140.05,140.05,0,0,0-5.09-16.15c-2.48-3-5.25-5.51-7-9.07a.08.08,0,0,1,.13-.08,74.73,74.73,0,0,0,4.5,6c.65.75,1.37,1.45,2,2.19a124.24,124.24,0,0,0-8-16.61A.22.22,0,0,1,375.75,295.3Z" style="fill:#263238"></path><path d="M377.72,314.78c3.15,4.24,6.73,8.28,9.66,12.65.08.13-.1.26-.21.16-3.76-3.53-6.94-8.34-9.66-12.68C377.42,314.77,377.63,314.66,377.72,314.78Z" style="fill:#263238"></path><path d="M387.82,328.41l.13.14a.1.1,0,0,1-.14.14l-.14-.13A.11.11,0,0,1,387.82,328.41Z" style="fill:#263238"></path><path d="M360.5,325.66c.79,8.13,5.06,17.84,10.27,24.1a25.62,25.62,0,0,0,8.33,6.5c3.61,1.78,7.39,3.84,11.12,5.3a73,73,0,0,1,3.93,14c.12-.4.24-.83.36-1.24-2.39-20.57-15.71-38.16-32.74-49.45A.83.83,0,0,0,360.5,325.66Z" style="fill:#FFC727"></path><path d="M366.39,331.74c-.12-.1,0-.32.17-.22a69.55,69.55,0,0,1,21.7,26.74c.13.28-.26.53-.42.25q-1.18-2.08-2.42-4.06h0c-3.89-.73-7.57-3.47-10.46-6.07-.07-.07,0-.18.12-.11a23.68,23.68,0,0,0,4.92,3.45,51.25,51.25,0,0,0,4.94,2c-1.44-2.29-2.95-4.48-4.51-6.61a45.26,45.26,0,0,1-11.69-6.56c-.11-.08,0-.27.11-.19a117,117,0,0,0,10.86,5.8,96.23,96.23,0,0,0-7.66-8.94c-1.32-.69-2.66-1.39-3.94-2.14a.11.11,0,0,1,.08-.2,13.66,13.66,0,0,1,3,1.49C369.67,334.77,368.08,333.24,366.39,331.74Z" style="fill:#263238"></path><path d="M366.75,338.85a5.17,5.17,0,0,1,.66.46c.06.06,0,.14-.09.11a4.6,4.6,0,0,1-.68-.39C366.52,339,366.63,338.77,366.75,338.85Z" style="fill:#263238"></path><polygon points="421.09 420.1 374.43 420.1 378.19 377.6 379.02 368.23 416.5 368.23 417.32 377.6 421.09 420.1" style="fill:#455a64"></polygon><polygon points="417.32 377.6 378.19 377.6 379.02 368.23 416.5 368.23 417.32 377.6" style="fill:#263238"></polygon><rect x="376.79" y="361.68" width="41.94" height="9.28" style="fill:#455a64"></rect></g><g id="freepik--Desk--inject-96"><polygon points="30.43 420.31 85.32 420.06 140.22 419.98 250 419.81 359.78 419.98 414.68 420.06 469.57 420.31 414.68 420.55 359.78 420.64 250 420.81 140.22 420.64 85.32 420.55 30.43 420.31" style="fill:#263238"></polygon></g></svg>